<?xml version="1.0" standalone="no"?>
<!DOCTYPE svg PUBLIC "-//W3C//DTD SVG 20010904//EN"
 "http://www.w3.org/TR/2001/REC-SVG-20010904/DTD/svg10.dtd">
<svg version="1.0" xmlns="http://www.w3.org/2000/svg"
 width="500.000000pt" height="500.000000pt" viewBox="0 0 500.000000 500.000000"
 preserveAspectRatio="xMidYMid meet">
<metadata>
Created by potrace 1.16, written by Peter Selinger 2001-2019
</metadata>
<g transform="translate(0.000000,500.000000) scale(0.100000,-0.100000)"
fill="#000000" stroke="none">
<path d="M0 2500 l0 -2500 2500 0 2500 0 0 2500 0 2500 -2500 0 -2500 0 0
-2500z m1895 -247 c4 -148 5 -481 2 -740 l-5 -473 1329 0 1329 0 0 -85 0 -85
-1410 0 -1410 0 0 825 0 825 79 0 79 0 7 -267z m435 -348 l0 -615 -85 0 -85 0
0 615 0 615 85 0 85 0 0 -615z m1052 568 c1 -27 2 -60 0 -75 l-3 -28 -330 0
-329 0 0 -185 0 -185 288 -2 287 -3 3 -72 3 -73 -291 0 -290 0 0 -280 0 -280
-80 0 -80 0 0 615 0 615 409 0 409 0 4 -47z m717 -85 c30 -73 141 -347 247
-609 107 -262 194 -481 194 -488 0 -7 -29 -11 -88 -11 l-89 0 -41 108 c-23 59
-55 144 -72 190 l-32 82 -255 -2 -255 -3 -67 -185 -68 -185 -86 -3 c-48 -1
-87 -1 -87 1 0 3 38 103 84 223 125 325 345 901 368 962 l19 52 88 0 87 0 53
-132z"/>
<path d="M3951 2369 c-2 -36 -55 -202 -122 -380 -38 -102 -69 -189 -69 -193 0
-3 92 -6 204 -6 l203 0 -80 213 c-43 116 -92 250 -107 297 -16 47 -29 78 -29
69z"/>
</g>
</svg>
